<?xml version='1.0' encoding='UTF-8' standalone='no'?>
<!-- Generator: Adobe Illustrator 16.0.0, SVG Export Plug-In . SVG Version: 6.00 Build 0)  -->
<svg xmlns="http://www.w3.org/2000/svg" gorn="0" xmlns:xml="http://www.w3.org/XML/1998/namespace" enable-background="new 0 0 57.6 50.4" id="svg2"  version="1.1" height="0.7in" x="0px" viewBox="0 0 57.6 50.4" xml:space="preserve" y="0px" width="0.8in">
    <desc >
        <referenceFile >svg.schematic.Optocoupler_TLP621_schematic.svg</referenceFile>
    </desc>
    <metadata id="metadata53" >
        <rdf:RDF xmlns:rdf="http://www.w3.org/1999/02/22-rdf-syntax-ns#">
            <cc:Work xmlns:rdf="http://www.w3.org/1999/02/22-rdf-syntax-ns#" rdf:about="" xmlns:cc="http://creativecommons.org/ns#">
                <dc:format xmlns:dc="http://purl.org/dc/elements/1.1/">image/svg+xml</dc:format>
                <dc:type xmlns:rdf="http://www.w3.org/1999/02/22-rdf-syntax-ns#" xmlns:dc="http://purl.org/dc/elements/1.1/" rdf:resource="http://purl.org/dc/dcmitype/StillImage"/>
                <dc:title xmlns:dc="http://purl.org/dc/elements/1.1/"/>
            </cc:Work>
        </rdf:RDF>
    </metadata>
    <defs id="defs51" />
    <rect stroke-linecap="round" gorn="0.3" id="part_symbol" stroke-width="0.9002"  height="36" x="7.2" y="7.2" fill="#FFFFFF" stroke="#000000" width="43.195"/>
    <g gorn="0.4" id="schematic" >
        <line stroke-linecap="round" gorn="0.4.0" x2="15.667" stroke-width="0.7" id="line5"  x1="19.266" y1="28.802" y2="28.802" fill="none" stroke="#000000"/>
        <line stroke-linecap="round" gorn="0.4.1" x2="12.066" stroke-width="0.7" id="line7"  x1="15.667" y1="28.802" y2="28.802" fill="none" stroke="#000000"/>
        <polygon stroke-linecap="round" gorn="0.4.2" stroke-width="0.7" id="polygon9"  points="15.667,28.802 12.066,21.601    15.667,21.601 19.266,21.601  " fill="#FFFFFF" stroke="#000000"/>
        <line stroke-linecap="round" gorn="0.4.3" x2="15.667" stroke-width="0.45" id="line11"  x1="15.667" y1="21.601" y2="28.802" fill="none" stroke="#000000"/>
        <polyline stroke-linecap="round" gorn="0.4.4" id="connector1pin_1_" stroke-width="0.7"  points="7.36,36    15.667,36 15.667,28.802  " fill="none" stroke="#000000"/>
        <polyline stroke-linecap="round" gorn="0.4.5" id="connector0pin_1_" stroke-width="0.7"  points="7.36,14.4    15.667,14.4 15.667,21.601  " fill="none" stroke="#000000"/>
        <rect gorn="0.4.6" id="rect15"  height="1.2" x="50.399" y="35.4" fill="none" width="7.2"/>
        <rect gorn="0.4.7" id="connector0terminal"  height="1.229" x="0" y="13.786" fill="none" width="0.611"/>
        <rect gorn="0.4.8" id="connector1terminal"  height="1.227" x="0" y="35.388" fill="none" width="0.611"/>
        <rect gorn="0.4.9" id="connector5terminal"  height="1.2" x="57" y="35.4" fill="none" width="0.6"/>
        <rect gorn="0.4.10" id="connector3terminal"  height="1.2" x="57" y="13.8" fill="none" width="0.6"/>
        <line stroke-linecap="round" gorn="0.4.11" x2="7.2" id="connector1pin" stroke-width="0.7"  x1="0" stroke-linejoin="round" y1="36" y2="36" fill="none" stroke="#787878"/>
        <line stroke-linecap="round" gorn="0.4.12" x2="7.2" id="connector0pin" stroke-width="0.7"  x1="0" stroke-linejoin="round" y1="14.4" y2="14.4" fill="none" stroke="#787878"/>
        <g transform="matrix(1 0 0 1 2.7751 12.7263)" >
            <g >
                <text gorn="0.4.13.0.0" id="text23"  font-family="DroidSans" fill="#787878" font-size="2">1</text>
            </g>
        </g>
        <g transform="matrix(1 0 0 1 2.7751 34.6501)" >
            <g >
                <text gorn="0.4.14.0.0" id="text25"  font-family="DroidSans" fill="#787878" font-size="2">2</text>
            </g>
        </g>
        <line stroke-linecap="round" gorn="0.4.15" x2="38.625" stroke-width="0.7" id="line27"  x1="38.625" y1="19.531" y2="30.331" fill="none" stroke="#000000"/>
        <polyline stroke-linecap="round" gorn="0.4.16" id="connector1pin_4_" stroke-width="0.7"  points="38.625,25.777    45.125,29.866 45.125,36 50.239,36  " fill="none" stroke="#000000"/>
        <polyline stroke-linecap="round" gorn="0.4.17" id="connector1pin_2_" stroke-width="0.7"  points="50.239,14.4    45.125,14.4 45.125,19.531 38.625,23.421  " fill="none" stroke="#000000"/>
        <line stroke-linecap="round" gorn="0.4.18" x2="57.6" id="connector5pin" stroke-width="0.7"  x1="50.399" stroke-linejoin="round" y1="36" y2="36" fill="none" stroke="#787878"/>
        <line stroke-linecap="round" gorn="0.4.19" x2="57.6" id="connector3pin" stroke-width="0.7"  x1="50.399" stroke-linejoin="round" y1="14.4" y2="14.4" fill="none" stroke="#787878"/>
        <g transform="matrix(1 0 0 1 53.1418 12.7263)" >
            <g >
                <text gorn="0.4.20.0.0" id="text33"  font-family="DroidSans" fill="#787878" font-size="2">4</text>
            </g>
        </g>
        <g transform="matrix(1 0 0 1 53.1418 34.6501)" >
            <g >
                <text gorn="0.4.21.0.0" id="text35"  font-family="DroidSans" fill="#787878" font-size="2">3</text>
            </g>
        </g>
        <line stroke-linecap="round" gorn="0.4.22" x2="21.427" stroke-width="0.45" id="line39"  x1="23.767" y1="26.101" y2="23.76" fill="none" stroke="#000000"/>
        <line stroke-linecap="round" gorn="0.4.23" x2="21.066" stroke-width="0.45" id="line41"  x1="23.406" y1="29.341" y2="27.001" fill="none" stroke="#000000"/>
        <path gorn="0.4.24" id="path43"  d="M22.866,26.637l1.438-1.438l1.08,2.521L22.866,26.637z"/>
        <path gorn="0.4.25" id="path45"  d="M22.509,29.878l1.438-1.438l1.08,2.521L22.509,29.878z"/>
        <path gorn="0.4.26" id="path47"  d="M41.498,28.738l1.111-1.704l1.577,2.243L41.498,28.738z"/>
    </g>
</svg>
